<?xml version="1.0" encoding="utf-8"?>
<!-- Generator: Adobe Illustrator 23.0.2, SVG Export Plug-In . SVG Version: 6.00 Build 0)  -->
<svg version="1.1" id="Layer_1" xmlns="http://www.w3.org/2000/svg" xmlns:xlink="http://www.w3.org/1999/xlink" x="0px" y="0px"
	 viewBox="0 0 2160 2160" style="enable-background:new 0 0 2160 2160;" xml:space="preserve">
<style type="text/css">
	.st0{fill:#074173;}
	.st1{fill:#1679AB;}
	.st2{fill:#5DEBD7;}
</style>
<g>
	<path class="st0" d="M1954.77,1264.16L1954.77,1264.16c0,25.43-20.61,46.04-46.04,46.04h-46.04h-184.16l-92.08,0.01l-92.08-0.01
		h-92.08h-184.16h-46.04c-25.43,0-46.04-20.61-46.04-46.04v0c0-25.43-20.61-46.04-46.04-46.04l0,0c-25.43,0-46.04,20.61-46.04,46.04
		v0c0,25.43-20.61,46.04-46.04,46.04h-46.04H849.8H665.63l-92.08,0.01l-92.08-0.01H389.4l-138.12,0
		c-25.43,0-46.04-20.61-46.04-46.04v0c0-25.43,20.61-46.04,46.04-46.04l46.04,0l92.08,0h92.08l92.08,0.01l92.08-0.01h92.08h92.08
		h46.04c25.43,0,46.04-20.61,46.04-46.04l0,0c0-25.43,20.61-46.04,46.04-46.04h184.16c25.43,0,46.04,20.61,46.04,46.04l0,0
		c0,25.43,20.61,46.04,46.04,46.04h46.04h92.08h92.08l46.03,0c25.43,0,46.04-20.61,46.04-46.04v0c0-25.43-20.61-46.04-46.04-46.04
		l-46.04,0h-92.08h-46.04c-25.43,0-46.04-20.61-46.04-46.04l0,0c0-25.43,20.61-46.04,46.04-46.04h46.04h92.08l92.08,0.01l92.08-0.01
		h184.16l92.08,0h138.12c25.43,0,46.04,20.61,46.04,46.04v0c0,25.43-20.61,46.04-46.04,46.04h-230.2l-92.08,0h-46.04
		c-25.43,0-46.04,20.61-46.04,46.04v0c0,25.43,20.61,46.04,46.04,46.04l46.04,0l92.08,0h46.04
		C1934.15,1218.12,1954.77,1238.74,1954.77,1264.16z"/>
	<g>
		<path class="st1" d="M849.8,1080c0,25.43-20.61,46.04-46.04,46.04l-138.12,0l-92.08,0.01l-92.08-0.01l-414.37,0
			c-25.43,0-46.04-20.61-46.04-46.04v0c0-25.43,20.61-46.04,46.04-46.04h46.04l92.08,0h92.08l92.08,0h92.08l92.08,0.01l92.08-0.01
			h92.08h46.04C829.18,1033.96,849.8,1054.57,849.8,1080L849.8,1080z"/>
		<path class="st1" d="M1770.6,1448.33c0,25.43-20.61,46.04-46.04,46.04l-46.04,0l-92.08,0.01l-92.08-0.01h-368.33h-92.08h-46.04
			c-25.43,0-46.04-20.61-46.04-46.04v0c0-25.43,20.61-46.04,46.04-46.04h46.04h92.08h368.33l92.08,0.01l92.08-0.01h46.04
			C1749.99,1402.29,1770.6,1422.9,1770.6,1448.33L1770.6,1448.33z"/>
	</g>
	<path class="st2" d="M803.76,941.88L803.76,941.88c-25.43,0-46.04-20.61-46.04-46.04v0c0-25.43,20.61-46.04,46.04-46.04h0
		c25.43,0,46.04,20.61,46.04,46.04v0C849.8,921.26,829.18,941.88,803.76,941.88z"/>
	<g>
		<path class="st2" d="M573.56,1448.33c0,25.43-20.61,46.04-46.04,46.04l-46.03,0h-46.04c-25.43,0-46.04-20.61-46.04-46.04v0
			c0-25.43,20.61-46.04,46.04-46.04h46.04l46.04,0C552.94,1402.29,573.56,1422.9,573.56,1448.33L573.56,1448.33z"/>
		<path class="st2" d="M803.76,1494.37h-92.08c-25.43,0-46.04-20.61-46.04-46.04v0c0-25.43,20.61-46.04,46.04-46.04h92.08
			c25.43,0,46.04,20.61,46.04,46.04v0C849.8,1473.75,829.18,1494.37,803.76,1494.37z"/>
		<path class="st2" d="M803.76,941.88h-92.08c-25.43,0-46.04-20.61-46.04-46.04v0c0-25.43,20.61-46.04,46.04-46.04h92.08
			c25.43,0,46.04,20.61,46.04,46.04v0C849.8,921.26,829.18,941.88,803.76,941.88z"/>
	</g>
</g>
</svg>
