<svg xmlns="http://www.w3.org/2000/svg" xmlns:xlink="http://www.w3.org/1999/xlink" viewBox="0 0 512 512" role="img" aria-label="Baraa Aldomani"><rect width="512" height="512" rx="112" fill="#0f172a"/><svg x="84" y="99" width="344" height="314" viewBox="0 0 400 365.4514313677514"><g id="svgg"><path id="path0" d="M82.708 1.666 L 72.500 1.750 46.530 27.710 C 32.246 41.988,20.497 53.613,20.420 53.544 C 20.343 53.474,20.326 53.499,20.383 53.599 C 20.515 53.829,19.444 54.884,19.254 54.711 C 19.177 54.641,19.162 54.668,19.221 54.772 C 19.281 54.877,18.994 55.271,18.581 55.651 L 17.833 56.340 17.833 108.717 L 17.833 161.094 17.042 161.328 C 16.606 161.456,16.137 161.572,16.000 161.584 C 15.862 161.596,15.499 161.738,15.193 161.898 C 14.887 162.059,14.514 162.144,14.365 162.087 C 14.216 162.029,14.146 162.034,14.209 162.098 C 14.358 162.247,11.468 163.666,11.267 163.542 C 11.183 163.491,11.169 163.535,11.234 163.641 C 11.339 163.811,11.237 163.865,10.894 163.819 C 10.835 163.811,10.737 163.887,10.675 163.987 C 10.454 164.345,9.447 164.987,9.267 164.884 C 9.166 164.827,9.134 164.836,9.195 164.905 C 9.257 164.973,8.807 165.464,8.195 165.995 C 7.584 166.527,6.828 167.229,6.515 167.557 C 6.203 167.885,5.865 168.107,5.765 168.050 C 5.665 167.993,5.639 168.008,5.707 168.083 C 5.775 168.158,5.579 168.526,5.272 168.901 C 3.628 170.908,1.516 174.805,1.075 176.646 C 1.039 176.795,0.930 177.217,0.833 177.583 C 0.290 179.638,0.140 180.898,0.145 183.382 C 0.150 186.590,0.488 188.587,1.489 191.330 C 1.766 192.089,1.945 192.787,1.887 192.881 C 1.829 192.975,1.858 193.004,1.951 192.947 C 2.044 192.889,2.259 193.159,2.430 193.546 C 2.829 194.454,3.587 195.724,4.280 196.645 C 4.581 197.046,4.780 197.451,4.721 197.546 C 4.662 197.643,4.696 197.668,4.799 197.604 C 5.014 197.472,5.379 198.060,5.202 198.255 C 5.137 198.327,5.172 198.336,5.281 198.274 C 5.397 198.207,5.670 198.411,5.944 198.772 C 6.526 199.534,8.763 201.481,10.029 202.326 C 10.553 202.676,10.930 203.027,10.866 203.106 C 10.802 203.185,10.817 203.196,10.898 203.130 C 10.979 203.064,11.504 203.265,12.065 203.578 C 13.294 204.264,15.386 205.115,16.750 205.484 L 17.750 205.755 17.833 258.218 L 17.917 310.681 43.648 336.424 C 57.800 350.582,69.444 362.167,69.523 362.167 C 69.602 362.167,69.667 362.232,69.667 362.312 C 69.667 362.501,71.832 364.667,72.022 364.667 C 72.101 364.667,72.167 364.771,72.167 364.899 C 72.167 365.328,72.606 365.333,111.472 365.333 L 150.250 365.332 177.625 337.963 L 205.000 310.593 205.000 271.797 L 205.000 233.001 180.208 208.208 L 155.417 183.416 180.202 158.666 L 204.986 133.917 204.993 97.264 L 205.000 60.611 229.458 36.224 L 253.917 11.836 288.307 11.834 L 322.697 11.833 347.099 36.227 L 371.500 60.620 371.500 95.111 L 371.500 129.601 367.646 133.342 C 365.526 135.400,360.356 140.496,356.157 144.667 C 349.071 151.705,344.429 156.293,336.364 164.230 C 334.605 165.960,333.167 167.469,333.167 167.583 C 333.167 167.794,340.123 174.833,340.331 174.833 C 340.395 174.833,342.360 172.940,344.700 170.625 C 347.039 168.310,350.042 165.348,351.373 164.042 C 352.705 162.735,353.763 161.667,353.725 161.667 C 353.686 161.667,353.933 161.423,354.273 161.125 C 354.613 160.827,357.416 158.071,360.503 155.000 C 363.589 151.929,369.651 145.919,373.974 141.645 L 381.833 133.873 381.833 95.050 L 381.833 56.228 354.429 28.864 L 327.024 1.500 288.241 1.500 L 249.459 1.500 224.699 26.254 C 211.082 39.868,199.882 50.987,199.812 50.962 C 199.741 50.937,188.547 39.798,174.936 26.207 L 150.189 1.498 121.553 1.540 C 105.803 1.563,88.323 1.619,82.708 1.666 M170.282 36.275 L 194.667 60.717 194.667 95.094 L 194.667 129.471 170.327 153.796 L 145.988 178.122 95.735 178.247 C 68.096 178.315,45.443 178.332,45.395 178.284 C 45.348 178.236,45.289 178.097,45.266 177.974 C 45.242 177.851,45.122 177.412,44.998 177.000 C 44.874 176.588,44.765 176.213,44.754 176.167 C 44.662 175.754,44.256 174.707,44.125 174.542 C 44.034 174.427,44.003 174.333,44.056 174.333 C 44.397 174.333,41.452 169.673,40.377 168.510 C 40.075 168.184,39.660 167.673,39.455 167.376 C 39.251 167.079,39.025 166.835,38.953 166.834 C 38.803 166.833,36.679 165.080,36.390 164.719 C 36.284 164.586,36.171 164.497,36.140 164.520 C 36.109 164.543,35.896 164.445,35.667 164.302 C 34.616 163.645,33.171 162.868,32.333 162.510 C 31.829 162.295,31.154 162.004,30.833 161.865 C 30.512 161.726,30.137 161.591,30.000 161.565 C 29.863 161.539,29.394 161.427,28.958 161.314 L 28.167 161.111 28.167 110.748 C 28.167 62.145,28.177 60.375,28.472 60.109 C 28.640 59.957,28.827 59.870,28.889 59.916 C 28.950 59.962,28.965 59.953,28.923 59.895 C 28.804 59.734,31.558 57.016,31.732 57.124 C 31.816 57.176,31.840 57.146,31.786 57.057 C 31.675 56.878,34.894 53.633,35.061 53.755 C 35.119 53.798,35.128 53.782,35.080 53.719 C 34.949 53.546,36.029 52.498,36.219 52.616 C 36.310 52.672,36.344 52.650,36.293 52.567 C 36.186 52.391,67.595 20.984,67.737 21.126 C 67.790 21.179,67.833 21.132,67.833 21.022 C 67.833 20.767,74.609 14.000,74.865 14.000 C 74.970 14.000,75.011 13.955,74.956 13.901 C 74.832 13.776,76.258 12.333,76.505 12.333 C 76.605 12.333,76.644 12.265,76.592 12.181 C 76.400 11.871,77.587 11.859,111.407 11.846 L 145.898 11.833 170.282 36.275 M203.167 150.083 C 201.511 151.817,186.211 167.259,175.201 178.308 C 172.425 181.095,170.175 183.437,170.201 183.514 C 170.286 183.756,173.376 186.833,173.535 186.833 C 173.618 186.833,173.660 186.890,173.629 186.958 C 173.597 187.027,173.817 187.321,174.119 187.611 C 174.420 187.901,174.669 188.088,174.673 188.027 C 174.676 187.966,174.786 188.104,174.917 188.333 C 175.048 188.563,175.158 188.692,175.161 188.621 C 175.169 188.437,179.500 192.834,179.500 193.026 C 179.500 193.114,179.569 193.144,179.652 193.092 C 179.736 193.040,179.831 193.076,179.862 193.171 C 179.894 193.266,182.469 195.913,185.585 199.053 C 188.701 202.193,194.300 207.844,198.027 211.612 C 201.754 215.380,204.867 218.501,204.944 218.549 C 205.021 218.596,205.064 211.852,205.040 203.561 L 204.996 188.488 208.707 188.536 L 212.417 188.583 212.370 183.458 L 212.324 178.333 208.663 178.333 L 205.002 178.333 204.959 163.292 L 204.917 148.250 203.167 150.083 M25.333 170.978 C 28.499 171.658,29.882 172.471,32.787 175.364 C 32.990 175.567,33.128 175.761,33.092 175.797 C 33.057 175.832,33.153 175.999,33.306 176.169 C 34.134 177.086,35.008 178.921,35.234 180.221 C 35.279 180.480,35.392 180.930,35.485 181.221 C 35.653 181.743,35.629 185.435,35.454 186.083 C 35.405 186.267,35.310 186.642,35.243 186.917 C 35.175 187.192,35.076 187.492,35.021 187.583 C 34.967 187.675,34.914 187.787,34.905 187.833 C 34.625 189.245,31.488 193.552,30.972 193.232 C 30.896 193.185,30.833 193.224,30.833 193.318 C 30.833 193.587,28.257 195.153,27.667 195.242 C 27.621 195.249,27.508 195.300,27.417 195.355 C 27.325 195.409,27.025 195.514,26.750 195.586 C 26.475 195.659,26.137 195.751,26.000 195.789 C 24.683 196.162,22.315 196.257,20.750 196.001 C 19.322 195.768,17.988 195.321,18.113 195.119 C 18.173 195.021,18.136 194.999,18.026 195.067 C 17.584 195.341,13.683 192.675,13.796 192.177 C 13.821 192.066,13.770 192.020,13.682 192.074 C 13.508 192.181,12.217 190.459,11.602 189.300 C 10.160 186.583,9.852 182.827,10.803 179.556 C 11.080 178.606,11.422 177.980,11.585 178.128 C 11.659 178.195,11.670 178.162,11.608 178.054 C 11.480 177.831,11.822 176.974,11.997 177.081 C 12.060 177.120,12.111 177.056,12.111 176.938 C 12.111 176.565,13.177 175.154,13.369 175.272 C 13.472 175.336,13.504 175.309,13.444 175.210 C 12.980 174.461,19.331 170.567,20.171 171.086 C 20.260 171.141,20.333 171.123,20.333 171.045 C 20.333 170.968,20.573 170.886,20.866 170.864 C 21.159 170.841,21.421 170.801,21.448 170.775 C 21.555 170.667,24.635 170.828,25.333 170.978 M216.130 183.375 L 216.176 188.500 223.088 188.500 L 230.000 188.500 230.000 183.420 L 230.000 178.340 223.042 178.295 L 216.083 178.250 216.130 183.375 M233.667 183.413 L 233.667 188.493 240.583 188.538 L 247.500 188.583 247.500 183.458 L 247.500 178.333 240.583 178.333 L 233.667 178.333 233.667 183.413 M251.296 183.502 L 251.250 188.670 258.167 188.627 L 265.083 188.583 265.127 183.458 L 265.171 178.333 258.257 178.333 L 251.343 178.333 251.296 183.502 M268.833 183.500 L 268.833 188.667 275.667 188.667 L 282.500 188.667 282.500 183.500 L 282.500 178.333 275.667 178.333 L 268.833 178.333 268.833 183.500 M286.500 183.500 L 286.500 188.667 293.333 188.667 L 300.167 188.667 300.167 183.500 L 300.167 178.333 293.333 178.333 L 286.500 178.333 286.500 183.500 M304.000 183.500 L 304.000 188.667 310.875 188.667 L 317.750 188.667 317.704 183.500 L 317.657 178.333 310.829 178.333 L 304.000 178.333 304.000 183.500 M321.630 183.500 L 321.583 188.667 324.010 188.667 L 326.438 188.667 326.888 189.137 C 327.135 189.395,327.281 189.670,327.211 189.747 C 327.141 189.824,327.177 189.833,327.292 189.767 C 327.406 189.701,327.502 189.708,327.504 189.782 C 327.506 189.856,327.774 190.212,328.100 190.574 C 328.425 190.935,328.877 191.451,329.103 191.721 C 329.514 192.209,329.516 192.209,329.883 191.888 C 330.085 191.711,330.869 191.018,331.625 190.349 C 332.381 189.679,333.000 189.171,333.000 189.219 C 333.000 189.268,333.282 189.032,333.626 188.695 C 333.970 188.359,334.514 187.868,334.834 187.605 C 337.095 185.750,337.506 185.230,336.974 184.901 C 336.848 184.823,336.823 184.862,336.903 185.016 C 336.970 185.145,336.790 184.972,336.503 184.633 C 336.215 184.293,335.975 183.984,335.969 183.944 C 335.963 183.905,335.447 183.324,334.822 182.655 C 334.197 181.985,333.731 181.357,333.786 181.260 C 333.842 181.163,333.827 181.137,333.754 181.203 C 333.681 181.269,333.426 181.078,333.186 180.778 C 332.946 180.479,332.379 179.806,331.927 179.284 L 331.103 178.333 326.390 178.333 L 321.676 178.333 321.630 183.500 M131.211 188.667 L 145.838 188.667 170.253 213.071 L 194.667 237.475 194.667 271.847 L 194.667 306.219 170.292 330.582 L 145.917 354.945 111.422 355.061 L 76.927 355.177 52.547 330.797 L 28.167 306.417 28.167 256.136 L 28.167 205.856 28.542 205.737 C 28.748 205.671,28.954 205.615,29.000 205.612 C 29.046 205.609,29.552 205.437,30.125 205.229 C 30.698 205.021,31.167 204.894,31.167 204.946 C 31.167 204.998,31.267 204.957,31.390 204.855 C 31.513 204.753,31.653 204.708,31.700 204.755 C 31.747 204.803,31.881 204.727,31.997 204.587 C 32.113 204.448,32.264 204.333,32.333 204.333 C 32.403 204.333,32.750 204.212,33.105 204.064 C 33.460 203.915,33.779 203.809,33.815 203.828 C 33.850 203.847,33.925 203.794,33.981 203.711 C 34.108 203.523,36.500 201.978,36.500 202.084 C 36.500 202.126,36.832 201.844,37.239 201.456 C 37.645 201.067,38.391 200.412,38.897 200.000 C 39.403 199.588,39.821 199.161,39.825 199.051 C 39.830 198.942,39.972 198.754,40.141 198.634 C 40.310 198.515,40.872 197.824,41.391 197.100 C 41.909 196.376,42.333 195.851,42.333 195.933 C 42.333 196.015,42.604 195.520,42.936 194.833 C 43.267 194.146,43.620 193.482,43.720 193.358 C 43.820 193.234,43.917 193.047,43.936 192.942 C 43.954 192.836,44.102 192.450,44.264 192.083 C 44.426 191.717,44.575 191.342,44.594 191.250 C 44.613 191.158,44.744 190.708,44.886 190.250 C 45.027 189.792,45.190 189.198,45.248 188.931 L 45.354 188.445 80.968 188.556 C 100.557 188.617,123.166 188.667,131.211 188.667 M339.497 188.921 C 339.381 189.060,339.255 189.144,339.217 189.106 C 339.179 189.067,338.880 189.309,338.554 189.643 C 338.227 189.977,337.894 190.231,337.813 190.208 C 337.733 190.185,337.667 190.227,337.667 190.301 C 337.667 190.375,336.752 191.219,335.633 192.176 C 334.515 193.133,333.266 194.224,332.857 194.599 L 332.115 195.281 332.474 195.641 C 332.672 195.838,332.833 196.057,332.833 196.127 C 332.833 196.196,332.983 196.347,333.167 196.461 C 333.350 196.576,333.500 196.735,333.500 196.815 C 333.500 196.895,333.781 197.252,334.125 197.607 C 334.840 198.347,335.675 199.312,335.654 199.374 C 335.646 199.398,336.052 199.864,336.557 200.411 C 337.062 200.958,337.432 201.476,337.379 201.562 C 337.325 201.648,337.368 201.665,337.474 201.599 C 337.580 201.534,337.667 201.541,337.667 201.615 C 337.668 201.689,337.875 201.975,338.127 202.250 C 338.379 202.525,339.181 203.444,339.908 204.292 C 340.636 205.140,341.261 205.833,341.298 205.833 C 341.390 205.833,342.096 205.270,343.082 204.411 C 343.541 204.010,343.977 203.682,344.050 203.682 C 344.123 203.681,344.418 203.415,344.705 203.090 C 344.993 202.766,345.292 202.500,345.369 202.500 C 345.447 202.500,345.751 202.237,346.046 201.917 C 346.340 201.596,346.657 201.333,346.750 201.333 C 346.844 201.333,347.013 201.183,347.128 201.000 C 347.242 200.817,347.402 200.667,347.482 200.667 C 347.655 200.667,349.000 199.346,349.000 199.176 C 349.000 199.111,348.815 198.884,348.588 198.671 C 348.362 198.459,348.218 198.219,348.268 198.138 C 348.317 198.058,348.291 198.012,348.209 198.038 C 348.126 198.063,347.551 197.483,346.929 196.750 C 346.308 196.017,345.451 195.016,345.025 194.526 C 344.599 194.036,344.275 193.548,344.306 193.442 C 344.336 193.337,344.308 193.304,344.242 193.369 C 344.131 193.480,343.012 192.374,343.004 192.145 C 343.002 192.087,342.719 191.749,342.375 191.395 C 342.031 191.040,341.346 190.281,340.852 189.708 C 339.878 188.579,339.812 188.541,339.497 188.921 M349.792 203.929 C 348.806 204.805,348.000 205.486,348.000 205.441 C 348.000 205.396,347.711 205.635,347.357 205.971 C 347.003 206.308,346.103 207.102,345.357 207.736 C 344.611 208.370,344.000 208.920,344.000 208.959 C 344.000 209.027,345.299 210.594,345.833 211.172 C 346.957 212.387,348.573 214.424,348.528 214.570 C 348.497 214.669,348.524 214.698,348.588 214.634 C 348.697 214.525,349.583 215.445,349.583 215.667 C 349.583 215.724,349.865 216.017,350.208 216.319 C 350.552 216.621,350.833 216.926,350.833 216.998 C 350.833 217.069,351.115 217.418,351.458 217.774 C 351.802 218.129,352.290 218.663,352.543 218.960 C 353.189 219.720,352.978 219.825,355.917 217.277 C 356.283 216.959,356.651 216.741,356.734 216.792 C 356.817 216.843,356.836 216.807,356.777 216.711 C 356.718 216.615,356.950 216.324,357.293 216.064 C 357.636 215.804,358.235 215.298,358.625 214.941 C 359.015 214.583,359.333 214.334,359.333 214.387 C 359.333 214.440,359.585 214.225,359.892 213.908 C 360.199 213.592,360.537 213.333,360.642 213.333 C 360.915 213.333,360.878 212.912,360.583 212.667 C 360.446 212.553,360.333 212.402,360.333 212.333 C 360.333 212.263,360.052 211.916,359.708 211.561 C 359.363 211.207,358.707 210.475,358.249 209.935 C 357.791 209.396,357.342 208.871,357.250 208.769 C 357.026 208.519,354.190 205.217,353.667 204.596 C 353.438 204.324,352.959 203.778,352.604 203.384 C 352.248 202.989,352.023 202.666,352.104 202.664 C 352.251 202.662,351.822 202.340,351.667 202.336 C 351.621 202.335,350.777 203.052,349.792 203.929 M362.689 216.750 C 362.333 217.071,362.002 217.333,361.951 217.333 C 361.901 217.333,361.568 217.615,361.211 217.958 C 360.854 218.302,359.866 219.177,359.015 219.903 C 358.164 220.628,357.363 221.328,357.234 221.456 C 357.105 221.585,357.000 221.638,357.000 221.573 C 357.000 221.508,356.841 221.657,356.648 221.903 C 356.454 222.149,356.255 222.311,356.206 222.261 C 356.104 222.160,355.680 222.670,355.672 222.903 C 355.669 222.987,355.713 223.010,355.769 222.954 C 355.860 222.862,356.681 223.706,356.686 223.898 C 356.688 223.942,357.002 224.306,357.386 224.706 C 358.417 225.782,358.944 226.396,358.997 226.583 C 359.023 226.675,359.185 226.848,359.356 226.968 C 359.527 227.088,359.667 227.298,359.667 227.436 C 359.667 227.574,359.742 227.640,359.833 227.583 C 359.925 227.527,360.000 227.610,360.000 227.768 C 360.000 227.926,360.047 228.008,360.105 227.950 C 360.163 227.892,360.370 228.047,360.564 228.293 C 360.758 228.540,360.879 228.746,360.833 228.750 C 360.787 228.755,361.071 229.049,361.463 229.403 C 361.855 229.757,362.144 230.078,362.105 230.117 C 362.066 230.156,362.342 230.483,362.718 230.844 C 363.093 231.205,363.359 231.500,363.308 231.500 C 363.258 231.500,363.614 231.931,364.100 232.457 L 364.984 233.414 365.575 232.841 C 365.901 232.526,366.167 232.314,366.167 232.371 C 366.167 232.428,366.456 232.198,366.810 231.862 C 367.883 230.841,370.180 228.922,370.443 228.827 C 370.580 228.777,370.704 228.665,370.720 228.577 C 370.736 228.489,371.185 228.054,371.717 227.611 L 372.685 226.806 372.092 226.083 C 371.767 225.686,371.500 225.267,371.500 225.153 C 371.500 225.038,371.454 224.990,371.398 225.046 C 371.306 225.139,370.484 224.291,370.482 224.100 C 370.481 224.056,370.203 223.734,369.864 223.385 C 369.526 223.036,368.900 222.338,368.474 221.833 C 368.049 221.329,367.224 220.362,366.642 219.684 C 366.060 219.007,365.604 218.382,365.629 218.297 C 365.654 218.212,365.603 218.186,365.516 218.240 C 365.428 218.295,365.257 218.199,365.136 218.029 C 363.780 216.116,363.533 215.987,362.689 216.750 M375.087 229.995 C 375.026 230.092,374.907 230.129,374.822 230.076 C 374.736 230.023,374.667 230.059,374.667 230.156 C 374.667 230.328,373.775 231.202,373.608 231.193 C 373.561 231.191,373.198 231.503,372.803 231.888 C 371.886 232.779,370.155 234.260,370.078 234.218 C 370.046 234.201,369.733 234.463,369.383 234.801 C 369.033 235.140,368.504 235.623,368.207 235.876 C 367.538 236.446,367.538 236.457,368.244 237.281 C 368.562 237.652,368.768 238.010,368.703 238.075 C 368.637 238.141,368.662 238.169,368.759 238.139 C 368.977 238.070,370.033 239.245,369.885 239.393 C 369.826 239.452,369.865 239.500,369.971 239.500 C 370.179 239.500,371.026 240.383,371.038 240.611 C 371.042 240.688,371.185 240.848,371.356 240.968 C 371.631 241.160,371.667 241.424,371.667 243.259 L 371.667 245.333 376.750 245.333 L 381.833 245.333 381.833 241.358 C 381.833 237.468,381.825 237.373,381.458 236.969 C 381.252 236.741,380.596 235.969,380.000 235.253 C 379.404 234.536,378.785 233.812,378.625 233.642 C 378.465 233.472,378.377 233.333,378.429 233.333 C 378.482 233.333,378.292 233.137,378.006 232.896 C 377.720 232.655,377.512 232.432,377.545 232.400 C 377.577 232.368,377.205 231.920,376.718 231.405 C 376.232 230.891,375.833 230.351,375.833 230.207 C 375.833 230.063,375.784 229.994,375.724 230.054 C 375.663 230.114,375.520 230.086,375.405 229.990 C 375.260 229.870,375.163 229.871,375.087 229.995 M371.667 256.248 L 371.667 263.333 376.752 263.333 L 381.837 263.333 381.793 256.292 L 381.750 249.250 376.708 249.206 L 371.667 249.162 371.667 256.248 M371.667 274.417 L 371.667 281.500 376.750 281.500 L 381.833 281.500 381.833 274.417 L 381.833 267.333 376.750 267.333 L 371.667 267.333 371.667 274.417 M371.667 292.583 L 371.667 299.667 376.750 299.667 L 381.833 299.667 381.833 292.583 L 381.833 285.500 376.750 285.500 L 371.667 285.500 371.667 292.583 M371.667 310.752 L 371.667 317.838 376.708 317.794 L 381.750 317.750 381.793 310.708 L 381.837 303.667 376.752 303.667 L 371.667 303.667 371.667 310.752 M373.444 320.006 C 373.184 320.082,372.865 320.104,372.734 320.054 C 372.603 320.004,372.399 320.043,372.281 320.141 C 372.164 320.238,371.790 320.337,371.450 320.360 C 371.111 320.383,370.833 320.474,370.833 320.562 C 370.833 320.650,370.792 320.681,370.742 320.631 C 370.299 320.188,364.275 323.239,362.442 324.833 C 362.179 325.063,361.765 325.420,361.523 325.629 C 360.556 326.462,359.540 327.604,358.570 328.949 C 358.094 329.609,357.658 330.115,357.602 330.074 C 357.546 330.034,357.537 330.049,357.582 330.110 C 357.627 330.170,357.592 330.306,357.505 330.411 C 357.233 330.738,355.604 334.065,355.546 334.409 C 355.516 334.589,355.400 334.794,355.287 334.865 C 355.175 334.937,355.129 334.996,355.184 334.997 C 355.239 334.999,355.178 335.394,355.049 335.875 C 354.790 336.837,354.767 336.932,354.433 338.500 C 354.119 339.970,354.133 344.736,354.455 346.266 C 354.758 347.703,354.733 347.604,355.002 348.500 C 355.126 348.912,355.235 349.287,355.246 349.333 C 355.330 349.711,355.738 350.786,355.852 350.930 C 355.930 351.029,356.015 351.254,356.042 351.431 C 356.069 351.608,356.218 351.933,356.372 352.154 C 356.527 352.374,356.614 352.617,356.567 352.694 C 356.519 352.771,356.560 352.833,356.657 352.833 C 356.754 352.833,356.833 352.910,356.833 353.004 C 356.833 353.215,358.404 355.613,358.878 356.125 C 359.069 356.331,359.180 356.500,359.124 356.500 C 359.069 356.500,359.683 357.156,360.489 357.958 C 362.007 359.470,363.333 360.669,363.333 360.529 C 363.333 360.485,363.465 360.560,363.625 360.696 C 363.785 360.833,364.329 361.192,364.833 361.494 C 365.337 361.796,365.796 362.115,365.852 362.203 C 365.908 362.290,366.021 362.365,366.102 362.368 C 366.183 362.372,366.653 362.553,367.146 362.771 C 367.638 362.988,368.077 363.167,368.121 363.167 C 368.164 363.167,368.436 363.273,368.725 363.402 C 369.214 363.622,370.369 364.020,370.750 364.100 C 370.842 364.120,371.292 364.226,371.750 364.336 C 373.212 364.687,373.857 364.740,376.667 364.740 C 379.476 364.740,380.121 364.687,381.583 364.336 C 382.042 364.226,382.492 364.118,382.583 364.097 C 384.783 363.581,388.013 361.984,390.265 360.301 C 390.732 359.952,391.205 359.667,391.317 359.667 C 391.428 359.667,391.479 359.601,391.430 359.522 C 391.381 359.442,391.785 359.011,392.328 358.563 C 392.871 358.116,393.322 357.675,393.329 357.583 C 393.337 357.492,393.716 357.020,394.171 356.535 C 394.627 356.050,395.000 355.586,395.000 355.505 C 395.000 355.424,395.098 355.258,395.219 355.137 C 395.600 354.753,397.433 351.427,397.590 350.833 C 397.602 350.787,397.660 350.637,397.717 350.500 C 397.993 349.845,398.610 347.734,398.765 346.917 C 398.799 346.734,398.875 346.367,398.932 346.103 C 399.059 345.519,399.097 345.175,399.249 343.250 C 399.439 340.853,398.707 336.516,397.717 334.167 C 397.660 334.029,397.598 333.879,397.581 333.833 C 397.564 333.787,397.447 333.487,397.322 333.167 C 397.197 332.846,397.112 332.522,397.135 332.446 C 397.157 332.370,397.098 332.356,397.004 332.414 C 396.910 332.472,396.833 332.435,396.833 332.331 C 396.833 332.043,395.527 329.875,394.681 328.759 C 393.687 327.447,389.833 323.627,389.833 323.953 C 389.833 323.986,389.402 323.723,388.875 323.370 C 387.798 322.649,385.323 321.408,384.625 321.241 C 384.373 321.180,384.167 321.051,384.167 320.954 C 384.167 320.857,384.125 320.820,384.073 320.871 C 383.989 320.955,383.485 320.837,381.667 320.307 C 380.446 319.951,374.380 319.729,373.444 320.006 " stroke="none" fill="#fbfbfb" fill-rule="evenodd"></path><path id="path1" d="M69.415 4.708 L 66.250 7.917 69.417 4.793 L 72.584 1.669 82.750 1.625 L 92.917 1.581 82.748 1.540 L 72.580 1.500 69.415 4.708 M56.583 17.542 L 47.083 27.083 56.625 17.584 C 65.494 8.754,66.241 8.000,66.124 8.000 C 66.101 8.000,61.807 12.294,56.583 17.542 M146.417 12.500 C 146.775 12.867,147.105 13.167,147.151 13.167 C 147.197 13.167,146.941 12.867,146.583 12.500 C 146.225 12.133,145.895 11.833,145.849 11.833 C 145.803 11.833,146.059 12.133,146.417 12.500 M75.575 13.083 C 75.162 13.496,74.883 13.832,74.954 13.831 C 75.106 13.827,76.574 12.333,76.426 12.333 C 76.370 12.333,75.987 12.671,75.575 13.083 M71.254 17.411 C 68.271 20.386,67.681 21.012,67.875 20.997 C 67.979 20.988,74.877 14.000,74.781 14.000 C 74.722 14.000,73.135 15.535,71.254 17.411 M150.826 16.875 C 151.235 17.310,151.591 17.667,151.618 17.667 C 151.743 17.667,151.611 17.517,150.875 16.826 L 150.083 16.083 150.826 16.875 M151.833 17.885 C 151.833 17.914,152.077 18.158,152.375 18.427 L 152.917 18.917 152.427 18.375 C 151.971 17.870,151.833 17.757,151.833 17.885 M153.660 19.708 C 154.068 20.144,154.425 20.500,154.451 20.500 C 154.577 20.500,154.444 20.350,153.708 19.660 L 152.917 18.917 153.660 19.708 M62.500 26.140 C 59.704 28.937,57.351 31.344,57.270 31.488 C 57.190 31.632,59.509 29.369,62.423 26.459 C 65.338 23.549,67.692 21.142,67.653 21.112 C 67.615 21.081,65.296 23.344,62.500 26.140 M155.667 21.713 C 155.667 21.738,156.248 22.319,156.958 23.004 L 158.250 24.250 157.004 22.958 C 155.847 21.759,155.667 21.591,155.667 21.713 M162.083 28.167 C 164.190 30.275,165.951 32.000,165.997 32.000 C 166.043 32.000,164.357 30.275,162.250 28.167 C 160.143 26.058,158.382 24.333,158.336 24.333 C 158.290 24.333,159.976 26.058,162.083 28.167 M335.833 25.083 C 336.144 25.404,336.436 25.667,336.482 25.667 C 336.528 25.667,336.311 25.404,336.000 25.083 C 335.689 24.762,335.397 24.500,335.351 24.500 C 335.305 24.500,335.522 24.762,335.833 25.083 M45.406 28.708 L 44.917 29.250 45.458 28.760 C 45.963 28.304,46.077 28.167,45.948 28.167 C 45.919 28.167,45.675 28.410,45.406 28.708 M44.240 29.875 L 43.750 30.417 44.292 29.927 C 44.797 29.471,44.910 29.333,44.781 29.333 C 44.752 29.333,44.509 29.577,44.240 29.875 M42.333 31.750 C 41.928 32.162,41.635 32.500,41.681 32.500 C 41.726 32.500,42.095 32.162,42.500 31.750 C 42.905 31.337,43.199 31.000,43.153 31.000 C 43.107 31.000,42.738 31.337,42.333 31.750 M56.038 32.609 C 55.555 33.099,55.218 33.498,55.288 33.496 C 55.453 33.490,57.071 31.845,56.983 31.772 C 56.946 31.742,56.521 32.119,56.038 32.609 M54.473 34.167 C 54.172 34.442,53.975 34.667,54.036 34.667 C 54.097 34.667,54.392 34.442,54.694 34.167 C 54.995 33.892,55.191 33.667,55.131 33.667 C 55.070 33.667,54.774 33.892,54.473 34.167 M38.413 35.708 L 37.083 37.083 38.458 35.754 C 39.735 34.519,39.909 34.333,39.788 34.333 C 39.763 34.333,39.144 34.952,38.413 35.708 M35.906 38.208 L 35.417 38.750 35.958 38.260 C 36.463 37.804,36.577 37.667,36.448 37.667 C 36.419 37.667,36.175 37.910,35.906 38.208 M34.740 39.375 L 34.250 39.917 34.792 39.427 C 35.297 38.971,35.410 38.833,35.281 38.833 C 35.252 38.833,35.009 39.077,34.740 39.375 M31.490 42.590 C 30.075 44.015,28.882 45.233,28.839 45.298 C 28.797 45.363,29.978 44.218,31.464 42.752 C 32.951 41.286,34.167 40.068,34.167 40.044 C 34.167 39.913,33.847 40.217,31.490 42.590 M27.197 46.854 C 26.801 47.227,26.506 47.562,26.541 47.596 C 26.576 47.631,26.934 47.324,27.337 46.913 C 28.251 45.982,28.161 45.944,27.197 46.854 M23.740 50.336 C 22.462 51.621,21.382 52.727,21.339 52.795 C 21.297 52.862,22.365 51.830,23.714 50.502 C 25.063 49.174,26.167 48.068,26.167 48.044 C 26.167 47.915,25.872 48.193,23.740 50.336 M36.906 51.708 L 36.417 52.250 36.958 51.760 C 37.463 51.304,37.577 51.167,37.448 51.167 C 37.419 51.167,37.175 51.410,36.906 51.708 M35.500 53.083 C 35.095 53.496,34.801 53.833,34.847 53.833 C 34.893 53.833,35.262 53.496,35.667 53.083 C 36.072 52.671,36.365 52.333,36.319 52.333 C 36.274 52.333,35.905 52.671,35.500 53.083 M19.750 54.272 C 17.867 56.249,17.813 56.352,19.542 54.670 C 20.436 53.801,21.167 53.070,21.167 53.045 C 21.167 52.860,20.756 53.216,19.750 54.272 M34.071 54.543 L 33.583 55.082 34.083 54.666 C 34.358 54.437,34.615 54.231,34.653 54.208 C 34.691 54.185,34.686 54.130,34.641 54.085 C 34.596 54.040,34.340 54.246,34.071 54.543 M32.167 56.417 C 31.762 56.829,31.468 57.167,31.514 57.167 C 31.560 57.167,31.928 56.829,32.333 56.417 C 32.738 56.004,33.032 55.667,32.986 55.667 C 32.940 55.667,32.572 56.004,32.167 56.417 M30.740 57.875 L 30.250 58.417 30.792 57.927 C 31.090 57.658,31.333 57.414,31.333 57.385 C 31.333 57.257,31.196 57.370,30.740 57.875 M369.500 131.417 C 368.817 132.104,368.296 132.667,368.342 132.667 C 368.388 132.667,368.984 132.104,369.667 131.417 C 370.350 130.729,370.871 130.167,370.825 130.167 C 370.779 130.167,370.183 130.729,369.500 131.417 M205.041 163.292 L 205.000 178.333 208.667 178.333 L 212.333 178.333 212.333 183.417 L 212.333 188.500 208.668 188.500 L 205.003 188.500 204.960 203.567 C 204.936 211.855,204.973 218.600,205.042 218.558 C 205.110 218.515,205.167 211.774,205.167 203.577 L 205.167 188.673 208.792 188.628 L 212.417 188.583 212.417 183.417 L 212.417 178.250 208.793 178.205 L 205.168 178.160 205.125 163.205 L 205.082 148.250 205.041 163.292 M363.240 152.208 L 362.750 152.750 363.292 152.260 C 363.797 151.804,363.910 151.667,363.781 151.667 C 363.752 151.667,363.509 151.910,363.240 152.208 M197.748 155.542 L 194.750 158.583 197.792 155.585 C 200.618 152.799,200.909 152.500,200.790 152.500 C 200.766 152.500,199.397 153.869,197.748 155.542 M361.658 153.792 L 361.083 154.417 361.708 153.842 C 362.290 153.308,362.410 153.167,362.283 153.167 C 362.255 153.167,361.974 153.448,361.658 153.792 M342.746 157.875 L 341.417 159.250 342.792 157.921 C 344.069 156.686,344.243 156.500,344.121 156.500 C 344.096 156.500,343.477 157.119,342.746 157.875 M16.357 161.358 C 16.049 161.446,15.828 161.550,15.866 161.588 C 15.950 161.672,17.167 161.349,17.167 161.242 C 17.167 161.144,17.034 161.163,16.357 161.358 M13.957 162.243 C 12.696 162.796,10.833 163.796,10.833 163.920 C 10.833 163.954,11.527 163.627,12.375 163.193 C 13.223 162.760,14.292 162.246,14.750 162.052 C 15.208 161.859,15.508 161.694,15.417 161.688 C 15.325 161.681,14.668 161.931,13.957 162.243 M31.333 162.083 C 31.563 162.214,31.825 162.322,31.917 162.322 C 32.008 162.322,31.896 162.214,31.667 162.083 C 31.438 161.952,31.175 161.845,31.083 161.845 C 30.992 161.845,31.104 161.952,31.333 162.083 M33.333 162.908 C 33.333 162.954,33.558 163.108,33.833 163.250 C 34.108 163.392,34.333 163.471,34.333 163.425 C 34.333 163.379,34.108 163.226,33.833 163.083 C 33.558 162.941,33.333 162.862,33.333 162.908 M9.569 164.704 C 7.703 166.037,6.398 167.294,4.931 169.167 C 4.321 169.946,3.748 170.675,3.658 170.787 C 3.357 171.164,1.701 174.412,1.596 174.833 C 1.538 175.063,1.820 174.575,2.222 173.750 C 3.874 170.359,6.855 166.773,9.625 164.844 C 10.561 164.192,10.785 164.000,10.610 164.000 C 10.580 164.000,10.111 164.317,9.569 164.704 M37.833 165.885 C 37.833 165.914,38.077 166.158,38.375 166.427 L 38.917 166.917 38.427 166.375 C 37.971 165.870,37.833 165.757,37.833 165.885 M345.240 170.042 L 344.750 170.583 345.292 170.094 C 345.797 169.638,345.910 169.500,345.781 169.500 C 345.752 169.500,345.509 169.744,345.240 170.042 M42.317 171.083 C 42.598 171.627,42.828 171.928,42.827 171.750 C 42.826 171.658,42.673 171.396,42.485 171.167 C 42.259 170.890,42.202 170.862,42.317 171.083 M18.829 171.391 C 18.231 171.602,17.593 171.869,17.412 171.983 C 17.087 172.190,17.087 172.191,17.417 172.075 C 19.281 171.420,20.094 171.120,20.153 171.065 C 20.311 170.917,19.854 171.029,18.829 171.391 M15.897 172.831 C 14.191 173.946,11.858 176.677,11.410 178.083 C 11.352 178.267,11.524 178.032,11.793 177.561 C 12.905 175.619,14.393 174.005,16.051 172.944 C 16.851 172.433,17.161 172.167,16.957 172.167 C 16.933 172.167,16.456 172.466,15.897 172.831 M176.499 176.958 L 172.917 180.583 176.542 177.001 C 178.535 175.031,180.167 173.400,180.167 173.376 C 180.167 173.258,179.827 173.590,176.499 176.958 M1.185 175.852 C 1.083 176.146,1.028 176.417,1.063 176.452 C 1.099 176.488,1.212 176.276,1.315 175.981 C 1.417 175.687,1.472 175.417,1.437 175.381 C 1.401 175.345,1.288 175.557,1.185 175.852 M0.863 176.958 C 0.781 177.119,0.670 177.512,0.616 177.833 C 0.515 178.440,0.631 178.230,0.962 177.208 C 1.153 176.621,1.101 176.492,0.863 176.958 M34.250 177.833 C 34.392 178.108,34.546 178.333,34.592 178.333 C 34.638 178.333,34.559 178.108,34.417 177.833 C 34.274 177.558,34.121 177.333,34.075 177.333 C 34.029 177.333,34.108 177.558,34.250 177.833 M57.471 178.292 C 64.193 178.316,75.143 178.316,81.805 178.292 C 88.466 178.268,82.967 178.248,69.583 178.248 C 56.200 178.248,50.750 178.268,57.471 178.292 M216.111 178.278 C 216.050 178.339,216.000 180.701,216.000 183.528 L 216.000 188.667 223.042 188.627 L 230.083 188.587 223.125 188.542 L 216.167 188.496 216.167 183.417 L 216.167 178.337 223.125 178.292 L 230.083 178.246 223.153 178.206 C 219.341 178.185,216.172 178.217,216.111 178.278 M237.136 178.292 C 239.090 178.318,242.240 178.318,244.136 178.291 C 246.032 178.265,244.433 178.243,240.583 178.243 C 236.733 178.243,235.182 178.265,237.136 178.292 M251.206 183.375 L 251.245 188.583 251.292 183.460 L 251.338 178.337 258.211 178.292 L 265.083 178.246 258.125 178.206 L 251.167 178.167 251.206 183.375 M275.623 178.292 L 282.495 178.337 282.542 183.544 L 282.588 188.750 282.627 183.458 L 282.667 178.167 275.708 178.206 L 268.750 178.246 275.623 178.292 M286.373 183.458 L 286.412 188.750 286.458 183.544 L 286.505 178.337 293.377 178.292 L 300.250 178.246 293.292 178.206 L 286.333 178.167 286.373 183.458 M310.789 178.292 L 317.662 178.337 317.708 183.460 L 317.755 188.583 317.794 183.375 L 317.833 178.167 310.875 178.206 L 303.917 178.246 310.789 178.292 M321.539 183.375 L 321.578 188.583 321.625 183.458 L 321.671 178.333 326.364 178.333 C 330.591 178.333,331.092 178.362,331.404 178.625 C 331.750 178.916,331.750 178.916,331.433 178.542 C 331.117 178.169,331.088 178.167,326.308 178.167 L 321.500 178.167 321.539 183.375 M11.000 178.917 C 10.903 179.171,10.862 179.417,10.907 179.463 C 10.953 179.509,11.070 179.338,11.167 179.083 C 11.263 178.829,11.305 178.583,11.259 178.537 C 11.213 178.491,11.097 178.662,11.000 178.917 M0.273 179.202 C 0.217 179.412,0.179 179.808,0.189 180.083 C 0.201 180.428,0.249 180.327,0.344 179.755 C 0.490 178.885,0.447 178.552,0.273 179.202 M332.167 179.583 C 332.478 179.904,332.770 180.167,332.815 180.167 C 332.861 180.167,332.644 179.904,332.333 179.583 C 332.022 179.262,331.730 179.000,331.685 179.000 C 331.639 179.000,331.856 179.262,332.167 179.583 M333.472 181.083 C 333.841 181.542,334.493 182.292,334.921 182.750 C 335.615 183.493,335.602 183.468,334.808 182.517 C 333.586 181.055,332.579 179.974,333.472 181.083 M10.437 180.923 C 10.380 181.072,10.344 181.507,10.357 181.889 C 10.379 182.542,10.387 182.529,10.497 181.667 C 10.621 180.689,10.605 180.487,10.437 180.923 M0.062 183.500 C 0.062 184.463,0.089 184.856,0.123 184.375 C 0.157 183.894,0.157 183.106,0.123 182.625 C 0.089 182.144,0.062 182.537,0.062 183.500 M35.556 183.500 C 35.556 184.188,35.585 184.469,35.621 184.125 C 35.657 183.781,35.657 183.219,35.621 182.875 C 35.585 182.531,35.556 182.813,35.556 183.500 M10.217 183.500 C 10.217 184.004,10.248 184.210,10.286 183.958 C 10.324 183.706,10.324 183.294,10.286 183.042 C 10.248 182.790,10.217 182.996,10.217 183.500 M336.326 184.458 C 336.636 184.848,336.919 185.167,336.956 185.167 C 337.074 185.167,336.359 184.229,336.056 183.985 C 335.895 183.856,336.017 184.069,336.326 184.458 M10.422 185.471 C 10.464 186.051,10.574 186.651,10.668 186.804 C 10.800 187.021,10.815 186.981,10.734 186.624 C 10.677 186.371,10.566 185.771,10.488 185.291 L 10.347 184.417 10.422 185.471 M0.195 186.750 C 0.176 187.319,0.731 189.790,0.918 189.967 C 0.986 190.031,0.998 189.933,0.944 189.750 C 0.826 189.343,0.372 187.241,0.279 186.667 C 0.220 186.302,0.210 186.312,0.195 186.750 M10.932 187.667 C 11.665 190.715,15.359 194.400,18.833 195.547 C 19.822 195.873,20.831 196.064,20.500 195.862 C 20.362 195.778,19.960 195.657,19.604 195.593 C 19.249 195.529,18.837 195.418,18.688 195.345 C 18.539 195.273,17.949 194.996,17.378 194.732 C 16.806 194.467,16.338 194.194,16.336 194.125 C 16.335 194.056,16.250 194.000,16.148 194.000 C 15.923 194.000,14.458 192.801,13.705 192.000 C 12.793 191.031,11.942 189.655,11.024 187.667 L 10.832 187.250 10.932 187.667 M334.606 187.764 C 334.343 187.995,334.161 188.217,334.201 188.257 C 334.241 188.297,334.489 188.106,334.752 187.832 C 335.332 187.226,335.257 187.191,334.606 187.764 M45.268 188.764 C 45.212 188.909,45.174 189.152,45.183 189.305 C 45.193 189.462,45.250 189.402,45.316 189.167 L 45.432 188.750 69.174 188.666 L 92.917 188.582 69.143 188.541 C 47.594 188.504,45.360 188.525,45.268 188.764 M237.042 188.625 C 238.944 188.652,242.056 188.652,243.958 188.625 C 245.860 188.598,244.304 188.576,240.500 188.576 C 236.696 188.576,235.140 188.598,237.042 188.625 M326.833 189.250 C 327.144 189.571,327.436 189.833,327.482 189.833 C 327.528 189.833,327.311 189.571,327.000 189.250 C 326.689 188.929,326.397 188.667,326.351 188.667 C 326.305 188.667,326.522 188.929,326.833 189.250 M332.250 189.796 C 331.883 190.137,331.133 190.821,330.583 191.314 C 329.589 192.206,329.966 191.935,331.712 190.500 C 332.461 189.885,333.148 189.153,332.960 189.171 C 332.936 189.173,332.617 189.454,332.250 189.796 M33.502 190.355 C 33.197 190.825,32.494 191.706,31.940 192.313 C 31.282 193.033,31.181 193.185,31.649 192.750 C 32.395 192.056,33.638 190.523,33.980 189.875 C 34.328 189.217,34.075 189.471,33.502 190.355 M1.020 190.333 C 1.017 190.471,1.118 190.808,1.244 191.083 C 1.539 191.727,1.543 191.428,1.250 190.667 C 1.126 190.346,1.023 190.196,1.020 190.333 M341.833 190.885 C 341.833 190.914,342.077 191.158,342.375 191.427 L 342.917 191.917 342.427 191.375 C 341.971 190.870,341.833 190.757,341.833 190.885 M1.593 191.973 C 1.750 192.552,2.524 194.198,2.602 194.120 C 2.639 194.083,2.404 193.497,2.079 192.818 C 1.753 192.139,1.534 191.759,1.593 191.973 M334.875 192.676 C 334.577 192.955,334.333 193.232,334.333 193.291 C 334.333 193.350,334.596 193.144,334.917 192.833 C 335.450 192.316,335.573 192.165,335.458 192.167 C 335.435 192.168,335.173 192.397,334.875 192.676 M343.348 192.603 C 343.569 192.889,343.784 193.093,343.824 193.056 C 343.865 193.020,343.684 192.786,343.422 192.537 L 342.945 192.083 343.348 192.603 M3.096 195.125 C 4.755 197.977,7.751 201.114,10.406 202.779 C 12.184 203.895,15.572 205.483,15.764 205.291 C 15.800 205.255,15.190 204.977,14.409 204.673 C 10.017 202.965,5.645 199.219,3.262 195.125 C 3.009 194.690,2.764 194.333,2.718 194.333 C 2.672 194.333,2.842 194.690,3.096 195.125 M332.436 194.766 C 332.097 195.065,332.011 195.235,332.143 195.346 C 332.246 195.432,332.293 195.451,332.246 195.388 C 332.200 195.325,332.365 195.062,332.612 194.803 C 333.170 194.221,333.078 194.202,332.436 194.766 M345.998 195.664 C 346.288 196.030,346.611 196.383,346.718 196.448 C 346.824 196.514,346.622 196.215,346.269 195.784 C 345.916 195.353,345.592 195.000,345.549 195.000 C 345.507 195.000,345.709 195.299,345.998 195.664 M41.600 196.794 C 41.242 197.302,41.035 197.665,41.139 197.600 C 41.371 197.457,42.388 195.997,42.308 195.923 C 42.276 195.894,41.957 196.286,41.600 196.794 M21.542 196.115 C 21.702 196.157,21.965 196.157,22.125 196.115 C 22.285 196.073,22.154 196.039,21.833 196.039 C 21.512 196.039,21.381 196.073,21.542 196.115 M186.667 200.250 C 188.636 202.221,190.285 203.833,190.330 203.833 C 190.376 203.833,188.803 202.221,186.833 200.250 C 184.864 198.279,183.215 196.667,183.170 196.667 C 183.124 196.667,184.697 198.279,186.667 200.250 M347.000 196.777 C 347.000 196.867,347.206 197.124,347.458 197.346 L 347.917 197.750 347.500 197.250 C 347.271 196.975,347.065 196.719,347.042 196.681 C 347.019 196.642,347.000 196.686,347.000 196.777 M334.395 198.048 C 334.842 198.572,335.243 199.000,335.286 199.000 C 335.398 199.000,334.009 197.359,333.777 197.216 C 333.670 197.150,333.949 197.525,334.395 198.048 M348.333 198.417 C 348.644 198.737,348.936 199.000,348.982 199.000 C 349.028 199.000,348.811 198.737,348.500 198.417 C 348.189 198.096,347.897 197.833,347.851 197.833 C 347.805 197.833,348.022 198.096,348.333 198.417 M37.583 201.121 C 36.690 201.950,37.009 201.782,38.042 200.879 C 38.386 200.579,38.611 200.337,38.542 200.341 C 38.473 200.345,38.042 200.696,37.583 201.121 M352.000 202.719 C 352.000 202.748,352.244 202.991,352.542 203.260 L 353.083 203.750 352.594 203.208 C 352.138 202.703,352.000 202.590,352.000 202.719 M349.744 203.797 C 349.466 204.046,348.952 204.498,348.602 204.802 C 348.252 205.106,347.992 205.379,348.024 205.411 C 348.057 205.442,348.608 204.989,349.250 204.405 C 349.892 203.820,350.379 203.342,350.333 203.343 C 350.287 203.343,350.022 203.547,349.744 203.797 M353.514 204.436 C 353.736 204.722,353.950 204.926,353.991 204.890 C 354.032 204.853,353.851 204.619,353.589 204.370 L 353.112 203.917 353.514 204.436 M16.333 205.479 C 16.471 205.561,16.846 205.675,17.167 205.732 C 17.560 205.801,17.642 205.789,17.417 205.692 C 16.901 205.472,16.037 205.301,16.333 205.479 M340.958 205.668 L 341.333 206.074 341.708 205.668 L 342.083 205.262 341.708 205.574 C 341.342 205.878,341.324 205.878,340.958 205.574 L 340.583 205.262 340.958 205.668 M346.405 206.709 L 345.917 207.249 346.417 206.833 C 346.692 206.604,346.948 206.398,346.986 206.375 C 347.024 206.352,347.019 206.297,346.974 206.252 C 346.929 206.207,346.673 206.413,346.405 206.709 M355.491 206.740 C 355.807 207.066,356.094 207.333,356.129 207.333 C 356.273 207.333,355.397 206.348,355.167 206.251 C 355.029 206.193,355.175 206.413,355.491 206.740 M345.158 207.792 L 344.583 208.417 345.208 207.842 C 345.552 207.526,345.833 207.245,345.833 207.217 C 345.833 207.090,345.692 207.210,345.158 207.792 M344.077 208.673 C 343.776 209.007,343.781 209.024,344.339 209.548 L 344.909 210.083 344.426 209.545 C 343.955 209.019,343.951 208.997,344.247 208.670 C 344.415 208.485,344.514 208.333,344.468 208.333 C 344.422 208.333,344.247 208.486,344.077 208.673 M359.167 211.052 C 359.167 211.081,359.410 211.325,359.708 211.594 L 360.250 212.083 359.760 211.542 C 359.304 211.037,359.167 210.923,359.167 211.052 M347.167 212.917 C 347.478 213.237,347.770 213.500,347.815 213.500 C 347.861 213.500,347.644 213.237,347.333 212.917 C 347.022 212.596,346.730 212.333,346.685 212.333 C 346.639 212.333,346.856 212.596,347.167 212.917 M347.833 213.719 C 347.833 213.748,348.077 213.991,348.375 214.260 L 348.917 214.750 348.427 214.208 C 347.971 213.703,347.833 213.590,347.833 213.719 M359.083 214.500 C 359.027 214.591,358.360 215.184,357.602 215.818 C 356.844 216.451,355.817 217.357,355.320 217.831 C 354.823 218.305,355.199 218.030,356.154 217.221 C 358.262 215.437,359.456 214.342,359.302 214.337 C 359.238 214.335,359.140 214.408,359.083 214.500 M362.619 216.690 L 361.917 217.379 362.625 216.773 C 363.455 216.064,363.562 216.044,363.907 216.537 C 364.050 216.741,364.167 216.827,364.167 216.730 C 364.167 216.537,363.631 216.000,363.439 216.000 C 363.374 216.000,363.005 216.310,362.619 216.690 M350.348 216.603 C 350.569 216.889,350.784 217.093,350.824 217.056 C 350.865 217.020,350.684 216.786,350.422 216.537 L 349.945 216.083 350.348 216.603 M364.333 216.949 C 364.333 217.027,364.765 217.544,365.292 218.098 C 365.819 218.652,366.020 218.838,365.738 218.511 C 365.457 218.184,365.025 217.667,364.780 217.362 C 364.534 217.057,364.333 216.871,364.333 216.949 M351.167 217.583 C 351.304 217.756,351.708 218.202,352.065 218.574 L 352.714 219.250 352.008 218.376 C 351.620 217.895,351.216 217.449,351.110 217.385 C 351.004 217.321,351.029 217.411,351.167 217.583 M358.991 219.792 L 358.417 220.417 359.042 219.842 C 359.623 219.308,359.743 219.167,359.616 219.167 C 359.588 219.167,359.307 219.448,358.991 219.792 M352.833 219.536 C 352.833 219.608,352.983 219.667,353.167 219.667 C 353.350 219.667,353.500 219.608,353.500 219.536 C 353.500 219.464,353.350 219.405,353.167 219.405 C 352.983 219.405,352.833 219.464,352.833 219.536 M357.772 220.764 C 357.510 220.995,357.328 221.217,357.368 221.257 C 357.408 221.297,357.656 221.106,357.918 220.832 C 358.498 220.226,358.423 220.191,357.772 220.764 M357.731 225.216 C 358.084 225.647,358.408 226.000,358.451 226.000 C 358.564 226.000,357.509 224.692,357.282 224.552 C 357.176 224.486,357.378 224.785,357.731 225.216 M371.993 225.958 C 372.302 226.348,372.586 226.667,372.623 226.667 C 372.740 226.667,372.026 225.729,371.723 225.485 C 371.562 225.356,371.683 225.569,371.993 225.958 M360.167 227.943 C 360.167 228.034,360.373 228.290,360.625 228.513 L 361.083 228.917 360.667 228.417 C 360.438 228.142,360.231 227.885,360.208 227.847 C 360.185 227.809,360.167 227.852,360.167 227.943 M361.500 229.583 C 361.811 229.904,362.103 230.167,362.149 230.167 C 362.195 230.167,361.978 229.904,361.667 229.583 C 361.356 229.262,361.064 229.000,361.018 229.000 C 360.972 229.000,361.189 229.262,361.500 229.583 M368.824 230.125 L 368.250 230.750 368.875 230.176 C 369.219 229.860,369.500 229.578,369.500 229.551 C 369.500 229.423,369.359 229.543,368.824 230.125 M373.905 230.876 L 373.417 231.415 373.917 230.999 C 374.192 230.771,374.448 230.565,374.486 230.542 C 374.524 230.519,374.519 230.463,374.474 230.418 C 374.429 230.374,374.173 230.580,373.905 230.876 M376.332 230.998 C 376.621 231.363,376.945 231.716,377.051 231.782 C 377.157 231.847,376.955 231.548,376.602 231.117 C 376.249 230.686,375.925 230.333,375.883 230.333 C 375.840 230.333,376.042 230.632,376.332 230.998 M367.606 231.097 C 367.343 231.328,367.161 231.550,367.201 231.590 C 367.241 231.630,367.489 231.439,367.752 231.165 C 368.332 230.559,368.257 230.525,367.606 231.097 M372.658 231.958 L 372.083 232.583 372.708 232.009 C 373.052 231.693,373.333 231.412,373.333 231.384 C 373.333 231.257,373.192 231.377,372.658 231.958 M365.543 232.867 C 365.075 233.336,364.988 233.366,364.718 233.154 C 364.443 232.937,364.436 232.942,364.645 233.208 C 364.771 233.369,364.921 233.498,364.979 233.495 C 365.141 233.488,366.207 232.485,366.132 232.410 C 366.096 232.374,365.831 232.579,365.543 232.867 M369.240 234.875 L 368.750 235.417 369.292 234.927 C 369.797 234.471,369.910 234.333,369.781 234.333 C 369.752 234.333,369.509 234.577,369.240 234.875 M380.929 236.367 C 381.190 236.707,381.441 236.948,381.485 236.904 C 381.530 236.859,381.316 236.581,381.009 236.286 L 380.453 235.750 380.929 236.367 M367.500 236.396 C 367.500 236.523,367.631 236.729,367.792 236.855 C 368.054 237.061,368.061 237.055,367.861 236.799 C 367.738 236.643,367.686 236.436,367.745 236.341 C 367.805 236.245,367.774 236.167,367.677 236.167 C 367.579 236.167,367.500 236.270,367.500 236.396 M368.500 237.750 C 368.811 238.071,369.103 238.333,369.149 238.333 C 369.195 238.333,368.978 238.071,368.667 237.750 C 368.356 237.429,368.064 237.167,368.018 237.167 C 367.972 237.167,368.189 237.429,368.500 237.750 M370.167 239.719 C 370.167 239.748,370.406 239.991,370.698 240.260 L 371.229 240.750 370.823 240.218 C 370.478 239.765,370.167 239.529,370.167 239.719 M371.286 241.011 C 371.413 241.174,371.509 242.045,371.542 243.344 L 371.595 245.417 371.631 243.312 C 371.662 241.479,371.629 241.178,371.375 240.979 C 371.118 240.777,371.108 240.781,371.286 241.011 M371.540 256.292 L 371.500 263.500 376.708 263.461 L 381.917 263.422 376.793 263.375 L 371.670 263.329 371.625 256.206 L 371.580 249.083 371.540 256.292 M371.540 274.458 L 371.500 281.667 376.708 281.627 L 381.917 281.588 376.793 281.542 L 371.670 281.495 371.625 274.373 L 371.580 267.250 371.540 274.458 M371.576 292.583 C 371.576 296.525,371.598 298.114,371.625 296.114 C 371.651 294.114,371.651 290.889,371.625 288.947 C 371.598 287.005,371.576 288.642,371.576 292.583 M371.540 310.708 L 371.580 317.917 371.625 310.794 L 371.670 303.671 376.793 303.625 L 381.917 303.578 376.708 303.539 L 371.500 303.500 371.540 310.708 M52.500 330.708 L 76.916 355.167 89.583 355.126 L 102.250 355.085 89.583 355.042 L 76.917 354.998 52.500 330.624 L 28.083 306.250 52.500 330.708 M18.993 311.875 C 19.402 312.310,19.758 312.667,19.785 312.667 C 19.910 312.667,19.778 312.517,19.042 311.826 L 18.250 311.083 18.993 311.875 M23.493 316.375 C 23.902 316.810,24.258 317.167,24.285 317.167 C 24.410 317.167,24.278 317.017,23.542 316.326 L 22.750 315.583 23.493 316.375 M375.958 319.789 C 376.348 319.824,376.985 319.824,377.375 319.789 C 377.765 319.754,377.446 319.725,376.667 319.725 C 375.887 319.725,375.569 319.754,375.958 319.789 M382.333 320.475 C 382.471 320.556,382.808 320.670,383.083 320.730 C 383.403 320.799,383.493 320.785,383.333 320.691 C 383.196 320.611,382.858 320.496,382.583 320.437 C 382.263 320.368,382.173 320.381,382.333 320.475 M367.167 321.750 C 366.938 321.881,366.825 321.988,366.917 321.988 C 367.008 321.988,367.271 321.881,367.500 321.750 C 367.729 321.619,367.842 321.512,367.750 321.512 C 367.658 321.512,367.396 321.619,367.167 321.750 M366.125 322.262 C 365.502 322.600,365.540 322.741,366.167 322.417 C 366.442 322.274,366.667 322.123,366.667 322.079 C 366.667 321.972,366.649 321.978,366.125 322.262 M364.701 323.072 C 363.884 323.649,363.827 323.777,364.583 323.336 C 365.366 322.879,365.635 322.663,365.408 322.675 C 365.321 322.679,365.003 322.858,364.701 323.072 M390.167 324.204 C 390.167 324.236,390.503 324.544,390.914 324.887 C 391.324 325.231,391.622 325.415,391.575 325.297 C 391.497 325.101,390.167 324.069,390.167 324.204 M32.333 325.219 C 32.333 325.248,32.577 325.491,32.875 325.760 L 33.417 326.250 32.927 325.708 C 32.471 325.203,32.333 325.090,32.333 325.219 M393.087 326.875 C 393.812 327.677,394.433 328.333,394.469 328.333 C 394.577 328.333,392.899 326.448,392.318 325.917 C 392.017 325.642,392.363 326.073,393.087 326.875 M35.167 328.052 C 35.167 328.081,35.410 328.325,35.708 328.594 L 36.250 329.083 35.760 328.542 C 35.304 328.037,35.167 327.923,35.167 328.052 M358.381 328.958 C 357.795 329.720,357.299 330.500,357.400 330.500 C 357.441 330.500,357.815 330.012,358.232 329.417 C 359.058 328.234,359.147 327.962,358.381 328.958 M38.660 331.542 C 39.068 331.977,39.425 332.333,39.451 332.333 C 39.577 332.333,39.444 332.184,38.708 331.493 L 37.917 330.750 38.660 331.542 M39.667 332.552 C 39.667 332.581,39.910 332.825,40.208 333.094 L 40.750 333.583 40.260 333.042 C 39.804 332.537,39.667 332.423,39.667 332.552 M41.333 334.219 C 41.333 334.248,41.577 334.491,41.875 334.760 L 42.417 335.250 41.927 334.708 C 41.471 334.203,41.333 334.090,41.333 334.219 M44.667 337.552 C 44.667 337.581,44.910 337.825,45.208 338.094 L 45.750 338.583 45.260 338.042 C 44.804 337.537,44.667 337.423,44.667 337.552 M354.062 342.333 C 354.062 343.296,354.089 343.690,354.123 343.208 C 354.157 342.727,354.157 341.940,354.123 341.458 C 354.089 340.977,354.062 341.371,354.062 342.333 M49.167 342.052 C 49.167 342.081,49.410 342.325,49.708 342.594 L 50.250 343.083 49.760 342.542 C 49.304 342.037,49.167 341.923,49.167 342.052 M53.667 346.552 C 53.667 346.581,53.910 346.825,54.208 347.094 L 54.750 347.583 54.260 347.042 C 53.804 346.537,53.667 346.423,53.667 346.552 M397.006 351.989 C 396.795 352.384,396.785 352.550,396.980 352.429 C 397.127 352.338,397.356 351.667,397.240 351.667 C 397.206 351.667,397.101 351.812,397.006 351.989 M357.364 354.250 C 357.468 354.479,357.618 354.667,357.697 354.667 C 357.776 354.667,357.718 354.479,357.568 354.250 C 357.418 354.021,357.268 353.833,357.234 353.833 C 357.201 353.833,357.259 354.021,357.364 354.250 M393.833 356.917 C 393.522 357.238,393.339 357.500,393.426 357.500 C 393.512 357.500,393.793 357.237,394.049 356.917 C 394.643 356.172,394.555 356.172,393.833 356.917 M392.167 358.694 C 391.662 359.159,391.475 359.388,391.750 359.202 C 392.220 358.884,393.314 357.825,393.156 357.841 C 393.116 357.845,392.671 358.228,392.167 358.694 M390.417 360.180 C 389.428 360.928,389.295 361.138,390.222 360.488 C 390.922 359.997,391.304 359.656,391.135 359.671 C 391.107 359.674,390.783 359.903,390.417 360.180 M388.535 361.444 C 388.142 361.681,387.853 361.909,387.895 361.950 C 387.968 362.024,389.333 361.180,389.333 361.061 C 389.333 360.967,389.299 360.984,388.535 361.444 M385.833 362.917 C 385.604 363.048,385.492 363.155,385.583 363.155 C 385.675 363.155,385.938 363.048,386.167 362.917 C 386.396 362.786,386.508 362.678,386.417 362.678 C 386.325 362.678,386.063 362.786,385.833 362.917 M368.000 363.222 C 368.000 363.266,368.242 363.385,368.538 363.488 C 368.834 363.591,369.002 363.607,368.913 363.523 C 368.723 363.346,368.000 363.107,368.000 363.222 M376.292 364.951 C 376.498 364.991,376.835 364.991,377.042 364.951 C 377.248 364.911,377.079 364.879,376.667 364.879 C 376.254 364.879,376.085 364.911,376.292 364.951 " stroke="none" fill="#b4d9ea" fill-rule="evenodd"></path></g></svg></svg>